<?xml version="1.0" encoding="utf-8"?>
<!-- Generator: Adobe Illustrator 16.0.0, SVG Export Plug-In . SVG Version: 6.00 Build 0)  -->
<!DOCTYPE svg PUBLIC "-//W3C//DTD SVG 1.1//EN" "http://www.w3.org/Graphics/SVG/1.1/DTD/svg11.dtd">
<svg version="1.1" id="Layer_1" xmlns="http://www.w3.org/2000/svg" xmlns:xlink="http://www.w3.org/1999/xlink" x="0px" y="0px"
	 width="3000px" height="3000px" viewBox="0 0 3000 3000" enable-background="new 0 0 3000 3000" xml:space="preserve">
<g>
	<path fill="#EC1C24" d="M340.656,1505.229c-17.323,0-26.008-13.854-31.2-26.01c-5.193-12.154-3.446-22.515-15.577-22.515
		c-12.132,0-41.586,36.37-46.778,84.918c0,5.215-1.747,38.115-1.747,55.463v51.995c0,19.047-1.699,43.309,1.747,57.162
		c3.445,19.094,8.662,20.816,22.516,27.756c5.192,1.723,6.939,3.445,10.384,3.445v1.747H148.305v-1.747
		c3.445,0,5.215-1.723,10.384-3.445c15.602-6.939,19.07-8.662,22.516-27.756c3.47-13.854,1.747-38.115,1.747-57.162v-123.059
		v-57.187c-1.747-13.878-5.217-17.323-12.132-22.54c-6.962-5.192-13.878-5.192-19.093-6.915v-1.748h88.388
		c3.47,0,3.47,1.748,3.47,3.471v79.726c8.638-34.672,25.986-57.211,36.37-67.595c10.409-10.385,27.755-22.515,50.271-22.515
		c10.385,0,22.516,3.445,31.178,12.131c5.216,5.216,10.408,15.578,10.408,29.454c1.747,17.3-8.614,32.925-31.153,32.925H340.656z
		 M619.673,1564.138H434.236c0,83.172,10.384,124.781,31.201,149.044c15.576,19.046,31.178,22.516,51.97,22.516
		c57.187,0,86.641-46.778,98.796-95.303h3.47c-12.154,60.633-51.994,102.242-112.65,102.242c-34.671,0-72.788-8.662-98.796-36.418
		c-27.731-31.178-38.116-67.57-38.116-117.818c0-95.327,53.716-157.706,129.973-157.706c86.641,0,124.781,58.909,124.781,114.374
		C621.371,1550.284,621.371,1557.199,619.673,1564.138L619.673,1564.138z M536.478,1448.042
		c-12.132-12.155-22.516-15.601-39.839-15.601c-15.601,0-26.009,3.445-36.393,15.601c-15.602,17.323-24.239,55.463-26.009,110.903
		h102.242c20.793,0,22.54,0,22.54-31.201C557.248,1486.157,546.887,1458.403,536.478,1448.042L536.478,1448.042z M831.072,1742.636
		c-17.324,0-31.178,0-38.117-5.216c-8.662-5.217-15.577-19.071-13.878-45.056c-6.916,24.263-31.154,50.271-76.233,50.271
		c-41.585,0-77.979-24.263-77.979-74.533c0-19.047,5.192-34.646,17.323-45.032c22.516-20.792,51.97-22.539,81.426-34.67
		c39.862-15.601,58.934-34.671,58.934-55.463v-53.718c0-38.117-10.385-45.056-39.839-45.056c-15.601,0-24.262,3.446-31.201,10.385
		c-6.916,6.939-10.384,22.515-10.384,43.332c0,22.517-12.132,31.178-31.179,31.178c-15.601,0-27.731-8.661-27.731-26.009
		c0-12.132,3.446-20.792,12.132-29.455c15.601-19.07,58.933-31.177,88.387-31.177c51.995,0,102.242,19.07,102.242,69.316
		c0,22.54-1.747,135.191-1.747,176.776c0,31.178,0,41.586,6.963,48.525c4.041,4.322,9.66,6.824,15.576,6.938
		c6.939,0,12.132-1.747,19.071-5.216v1.747c-8.709,5.191-31.225,12.131-53.765,12.131L831.072,1742.636z M734.046,1588.399
		c-19.093,10.385-27.755,17.324-34.67,27.732c-6.939,12.131-12.131,31.178-12.131,50.271c0,39.839,15.576,62.379,43.332,62.379
		c5.192,0,12.131,0,17.3-3.445c15.6-6.939,29.479-31.201,29.479-53.718v-117.842
		C768.694,1569.329,753.092,1577.992,734.046,1588.399z M876.127,1735.696c3.47-1.723,8.663-3.47,12.156-5.192
		c12.131-5.216,17.324-8.661,20.792-27.754c3.446-13.855,3.446-36.37,3.446-57.188v-306.749c0-12.131,0-45.032-1.723-57.164
		c-1.724-13.877-5.192-19.093-12.155-22.54c-6.915-5.215-13.854-5.215-19.047-6.939h88.363c3.446,0,3.446,0,3.446,5.216v391.667
		c0,19.047,0,41.586,1.747,57.163c3.445,19.094,8.662,22.539,24.239,27.755c3.47,1.723,5.216,1.723,8.662,3.446v1.746H876.081v-3.47
		h0.048H876.127z"/>
	<path fill="#231F20" d="M1196.73,1697.558c-10.384,22.539-41.609,45.079-72.787,45.079c-27.731,0-45.055-3.47-60.632-19.094
		c-12.132-12.131-19.093-26.009-19.093-51.971c0-13.854,1.747-197.545,3.469-232.215c-10.385,0-31.178,0-41.609-1.747v-1.723
		c43.332-10.385,71.063-32.948,100.542-128.25h1.699v126.503h69.341v3.445h-69.341l-3.446,253.032
		c0,26.009,6.939,41.587,36.395,41.587c24.262,0,43.332-19.047,51.994-36.37L1196.73,1697.558z M1316.319,1742.637
		c-69.317,0-143.851-60.656-143.851-155.983c0-95.279,74.533-155.935,143.851-155.935c69.341,0,145.575,58.909,145.575,155.935
		C1461.895,1681.98,1387.361,1742.637,1316.319,1742.637z M1363.122,1453.211c-13.879-17.323-31.201-20.793-46.803-20.793
		c-15.601,0-32.948,5.192-45.055,19.07c-20.793,22.539-32.924,79.702-32.924,133.442c0,55.464,12.132,109.157,32.924,133.421
		c13.878,17.322,31.201,20.815,46.778,20.815c15.601,0,31.2-3.47,46.777-20.815c19.094-22.517,32.948-77.979,32.948-133.421
		C1396.046,1531.19,1383.914,1477.496,1363.122,1453.211z M1642.092,1505.229c-17.3,0-25.985-13.854-31.153-26.009
		c-5.217-12.155-3.471-22.516-15.625-22.516c-12.131,0-41.585,36.37-46.777,84.918c0,5.216-1.699,38.116-1.699,55.464v51.995
		c0,19.046-1.747,43.308,1.699,57.162c3.469,19.094,8.662,20.815,22.539,27.755c5.216,1.724,6.915,3.446,10.385,3.446v1.747
		h-129.975v-1.747c3.446,0,5.217-1.723,10.386-3.446c15.601-6.939,19.07-8.661,22.517-27.755
		c3.469-13.854,1.746-38.116,1.746-57.162v-123.06v-57.186c-1.746-13.878-5.216-17.324-12.132-22.54
		c-6.962-5.193-13.878-5.193-19.093-6.916v-1.747h88.388c3.47,0,3.47,1.747,3.47,3.47v79.726
		c8.638-34.671,25.985-57.21,36.369-67.594c10.408-10.385,27.755-22.516,50.271-22.516c10.385,0,22.516,3.445,31.178,12.132
		c5.217,5.216,10.408,15.577,10.408,29.455C1675.064,1489.605,1664.633,1505.229,1642.092,1505.229L1642.092,1505.229z
		 M1675.063,1747.828c-20.816,0-38.141-15.601-38.141-38.115c0-22.516,17.324-38.117,38.141-38.117
		c20.793,0,38.093,13.855,38.093,38.117C1711.435,1732.229,1695.856,1747.828,1675.063,1747.828z M1874.331,1742.637
		c-38.116,0-72.787-15.601-95.303-38.116c-29.479-29.479-39.862-71.088-39.862-121.336c0-95.302,72.787-152.489,136.911-152.489
		c43.333,0,76.234,15.578,88.389,31.178c10.384,12.154,15.577,22.516,15.577,32.948c0,22.516-15.577,31.177-29.454,31.177
		c-24.24,0-32.925-15.601-34.672-38.117c-5.192-39.839-12.131-53.717-41.585-53.717c-12.132,0-31.178,5.216-41.609,17.324
		c-15.577,19.07-24.239,64.125-24.239,119.565c0,69.341,8.662,114.373,26.009,140.358c13.854,19.094,31.178,24.262,46.777,24.262
		c64.126,0,91.857-55.463,102.243-97.049h3.445C1969.634,1697.559,1933.24,1742.638,1874.331,1742.637L1874.331,1742.637z
		 M2127.363,1742.637c-69.341,0-143.851-60.656-143.851-155.983c0-95.279,74.51-155.935,143.851-155.935
		c69.317,0,145.55,58.909,145.55,155.935C2272.913,1681.98,2196.658,1742.637,2127.363,1742.637z M2174.142,1453.211
		c-13.878-17.323-31.201-20.793-46.778-20.793c-15.601,0-32.948,5.192-45.055,19.07c-20.817,22.539-32.948,79.702-32.948,133.442
		c0,55.464,12.131,109.157,32.948,133.421c13.854,17.322,31.178,20.815,46.777,20.815c15.577,0,31.179-3.47,46.778-20.815
		c19.07-22.517,32.924-77.979,32.924-133.421C2205.343,1531.19,2193.212,1477.496,2174.142,1453.211z M2619.503,1735.697
		c3.469-1.723,5.215-3.47,10.384-5.191c13.878-5.217,19.071-8.662,22.54-27.756c3.445-13.854,3.445-36.369,3.445-57.187v-123.06
		c0-32.924-3.445-48.5-10.385-58.909c-8.661-12.131-20.793-19.07-38.117-19.07c-31.2,0-67.595,27.732-72.787,81.449
		c0,10.386-1.723,22.517-1.723,36.395v81.448c0,19.07-1.746,41.586,1.723,57.188c3.446,19.069,8.662,22.516,22.517,27.731
		c5.216,1.746,6.938,3.445,10.408,3.445v1.747h-131.72v-1.747c3.47,0,5.217-1.699,10.385-3.445
		c13.877-5.217,19.07-8.663,22.539-27.731c3.446-13.855,3.446-36.395,3.446-57.188v-123.035c0-32.947-3.446-48.548-12.132-58.932
		c-8.662-12.131-20.793-19.07-38.116-19.07c-34.671,0-67.595,29.454-72.787,83.171c-1.747,17.324-1.747,38.117-1.747,58.934v57.163
		c0,19.093-1.723,43.333,1.747,57.211c3.445,19.07,8.661,20.793,24.239,27.73l10.384,3.471v1.698H2252.05v-1.698
		c3.445,0,5.217-1.747,10.385-3.471c15.602-5.192,19.07-8.661,22.539-27.73c3.445-13.878,3.445-38.117,3.445-57.211v-121.288
		c0-12.154,0-46.779-1.723-57.21c-1.723-13.854-5.217-17.323-12.131-22.515c-6.939-5.216-13.878-5.216-19.094-6.939v-1.724h88.387
		c3.447,0,3.447,0,3.447,3.446l-1.723,69.341c8.661-31.178,24.263-48.525,39.862-60.657c12.131-8.662,34.647-19.07,58.909-19.07
		c31.178,0,53.717,8.663,65.849,24.239c6.94,8.662,19.071,27.755,19.071,57.21c8.661-32.925,26.009-51.995,41.609-62.402
		c15.577-12.132,39.839-19.071,57.186-19.071c38.117,0,57.188,12.132,67.572,26.01c8.661,10.384,17.322,29.454,17.322,65.848
		v124.758c0,19.094,0,41.609,3.471,57.21c3.445,19.07,8.662,22.54,22.517,27.731l10.384,3.47v1.699h-129.973v3.563H2619.503
		L2619.503,1735.697z M2799.747,1493.073c-6.939,0-13.878-1.699-20.794-3.445c-6.938-3.446-12.154-6.915-15.601-10.385
		c-5.216-5.192-8.661-10.385-10.384-15.601c-3.47-6.916-3.47-12.131-3.47-20.793c0-6.94,1.747-13.878,3.47-20.792
		c3.445-6.939,6.915-12.132,10.384-17.324c5.193-5.215,10.386-8.662,17.324-10.408c6.915-3.445,13.854-3.445,20.793-3.445
		c6.938,0,13.878,1.747,20.793,3.445c6.939,3.47,12.156,6.962,15.602,10.408c5.216,5.215,8.661,10.385,10.385,15.578
		c3.446,6.962,3.446,12.154,3.446,20.816c0,6.939-1.724,13.854-3.446,20.793c-3.446,6.939-6.939,12.154-10.385,17.323
		s-10.385,8.662-17.324,10.385C2813.602,1493.073,2806.686,1493.073,2799.747,1493.073L2799.747,1493.073z M2799.747,1487.881
		c6.938,0,12.132-1.724,19.071-3.469c5.191-1.699,10.384-5.193,13.854-10.361c3.47-3.469,6.938-8.663,10.408-13.878
		c1.723-5.216,3.445-12.131,3.445-17.323c0-6.94-1.723-12.131-3.445-17.324c-1.858-5.639-5.515-10.514-10.408-13.876
		c-3.446-3.446-8.662-6.916-13.854-10.362c-5.217-1.746-12.133-3.469-17.324-3.469c-6.939,0-12.132,1.723-19.07,3.469
		c-5.643,1.83-10.521,5.473-13.878,10.362c-3.446,3.469-6.916,8.662-10.385,13.876c-1.723,5.217-3.447,12.132-3.447,17.324
		c0,6.915,1.725,12.131,3.447,17.323c1.723,5.192,5.216,10.384,10.385,13.878c3.469,3.445,8.662,6.915,13.878,10.361
		C2787.592,1486.157,2794.53,1487.881,2799.747,1487.881z M2778.953,1411.625h24.24c6.938,0,13.878,1.746,17.323,5.216
		c3.446,3.469,5.216,6.939,5.216,12.13c0,5.217-1.747,8.663-3.47,10.41c-1.723,3.445-5.191,5.192-8.661,6.915l13.878,19.093h-13.878
		l-12.132-17.323h-8.662v17.323h-12.131v-53.741h-1.724V1411.625z M2803.216,1437.609c3.47,0,5.217,0,6.939-1.723
		c1.724-1.723,1.724-3.445,1.724-5.192c0-3.446,0-5.215-1.724-5.215c-1.723-1.724-3.445-1.724-6.939-1.724h-12.131v15.601h12.131
		V1437.609z"/>
</g>
</svg>
